PathFileType	4	(X/Y/Z)	s10c0301.trc
DataRate	CameraRate	NumFrames	NumMarkers	Units	OrigDataRate	OrigDataStartFrame	OrigNumFrames
200	200	4	50	mm	200	750	2000
Frame#	Time	racr			lacr			c7			jug			rlel			rdr			llel			ldr			s2			lic			ric			lasi			rasi			rpsi			lpsi			rgt			lgt			rth1			rth2			rth3			rth4			rlfc			rmfc			rsh1			rsh2			rsh3			rsh4			rlmal			rmmal			rcal			rtoe			rmt5			lth1			lth2			lth4			lth3			llfc			lmfc			llmal			lmmal			lcal			lmt5			lsh1			lsh2			lsh3			lsh4			ltoe			SBIKE			LBIKE			RBIKE			
		X1	Y1	Z1	X2	Y2	Z2	X3	Y3	Z3	X4	Y4	Z4	X5	Y5	Z5	X6	Y6	Z6	X7	Y7	Z7	X8	Y8	Z8	X9	Y9	Z9	X10	Y10	Z10	X11	Y11	Z11	X12	Y12	Z12	X13	Y13	Z13	X14	Y14	Z14	X15	Y15	Z15	X16	Y16	Z16	X17	Y17	Z17	X18	Y18	Z18	X19	Y19	Z19	X20	Y20	Z20	X21	Y21	Z21	X22	Y22	Z22	X23	Y23	Z23	X24	Y24	Z24	X25	Y25	Z25	X26	Y26	Z26	X27	Y27	Z27	X28	Y28	Z28	X29	Y29	Z29	X30	Y30	Z30	X31	Y31	Z31	X32	Y32	Z32	X33	Y33	Z33	X34	Y34	Z34	X35	Y35	Z35	X36	Y36	Z36	X37	Y37	Z37	X38	Y38	Z38	X39	Y39	Z39	X40	Y40	Z40	X41	Y41	Z41	X42	Y42	Z42	X43	Y43	Z43	X44	Y44	Z44	X45	Y45	Z45	X46	Y46	Z46	X47	Y47	Z47	X48	Y48	Z48	X49	Y49	Z49	X50	Y50	Z50	
750	3.7500	641.118522	1291.282549	-87.020472	655.251273	1322.011287	-410.808596	625.411790	1348.872057	-253.925394	620.689231	1210.054278	-263.624530	530.002749	1055.964036	16.802346	646.845494	878.145323	-57.220397	596.212334	1065.381004	-531.599647	647.315660	886.609181	-421.796154	119.856497	1135.274889	-156.790816	220.441948	1158.699659	-353.303896	338.988862	1134.684989	-83.121213	252.199759	1073.065267	-343.093645	324.730692	1040.528405	-101.971409	184.723622	1179.002122	-111.274478	151.324492	1199.752782	-217.005339	231.231051	1012.486309	-13.364361	124.077162	1034.273355	-371.338518	250.151355	873.434613	-6.066958	275.396709	793.771523	-36.033987	257.880777	710.435143	-48.021263	307.669419	800.944783	-53.046458	274.195837	609.937934	-80.504315	227.779589	604.395877	-185.016794	223.227766	510.444564	-37.427497	220.520464	423.241609	-53.561001	179.317659	347.332222	-48.315524	241.347243	419.743278	-85.972168	139.830088	257.086409	-56.677084	152.702012	260.077404	-140.593785	81.137144	254.609413	-99.414695	300.667784	147.138342	-106.532679	217.290249	153.461772	-40.364375	232.841416	951.556074	-408.899002	317.819471	931.271921	-410.425327	335.571536	961.613657	-399.060982	381.380198	869.763995	-418.616662	463.936387	795.459988	-410.838392	466.144464	773.987290	-286.782271	125.562162	622.540477	-384.446716	142.775943	612.662890	-304.326512	69.063540	640.875329	-336.732486	135.222536	475.806357	-398.489049	351.052394	747.110524	-432.203283	292.119354	685.523897	-413.229104	206.199149	661.982510	-403.421525	310.490815	661.903470	-388.249062	205.932096	426.088945	-342.397111	-217.692065	833.697103	-213.880134	-104.049312	80.500734	-418.295625	-103.996304	80.339275	-18.271336	
751	3.7550	642.873136	1292.337988	-90.722485	654.046165	1323.147251	-413.288108	624.571982	1349.360055	-256.809117	620.754495	1210.284464	-266.229087	532.535099	1057.256621	16.517534	647.109401	877.518035	-55.735036	597.289451	1065.613220	-531.985972	647.192465	886.687352	-422.040506	120.835007	1134.115545	-153.774330	220.062439	1157.531660	-352.715643	341.210754	1133.841262	-83.273318	252.416069	1071.812146	-342.996603	326.008271	1040.242677	-101.918898	185.936866	1177.984598	-109.741634	151.930717	1198.887972	-215.311916	231.655971	1012.236668	-12.927939	125.277705	1034.204963	-370.152779	248.798033	873.308968	-3.765401	272.135774	793.048187	-33.265341	253.222711	710.022105	-44.735814	304.716228	799.379000	-50.430723	267.234639	609.054442	-76.778691	220.857242	603.460886	-181.365987	216.372668	509.597537	-34.669945	213.719359	422.296671	-50.607625	172.455709	346.367017	-46.031114	234.865585	419.023912	-82.963564	133.897203	256.255933	-55.182190	146.724923	259.388669	-138.724304	75.414612	255.618557	-97.913231	291.636397	141.864105	-106.599664	208.777563	150.258371	-40.090709	233.988751	952.538689	-408.257638	319.387891	934.179757	-410.704631	336.522960	964.897086	-399.126899	384.177214	874.119375	-419.862035	470.257925	802.037438	-412.434381	474.328124	780.873996	-288.142241	135.413307	625.531514	-384.403857	152.729274	615.438734	-304.058905	79.031241	643.067881	-336.158897	145.266589	478.558810	-398.455234	358.711260	752.968256	-432.680247	300.456149	690.647681	-413.905430	215.055987	666.051597	-403.443113	319.413747	666.951973	-389.252583	216.001547	428.623033	-342.526660	-217.956802	833.727858	-213.882317	-104.048358	80.503817	-418.275453	-103.988405	80.336434	-18.267162	
752	3.7600	644.836554	1293.333732	-94.385763	652.679120	1324.137464	-415.887131	623.746757	1349.737536	-259.746903	620.763638	1210.722344	-268.975750	535.281521	1058.426022	16.307730	647.214029	877.836955	-56.947267	598.203403	1065.834381	-532.514252	647.029960	886.759114	-422.264725	119.740851	1135.015369	-151.367417	219.943589	1156.559748	-352.432655	343.200943	1133.192580	-83.632182	252.891491	1070.846657	-342.768891	327.108438	1040.191750	-101.926762	186.953547	1179.507864	-109.877333	152.575740	1198.183362	-213.962716	231.997623	1012.038286	-12.116244	126.879492	1034.246305	-369.009579	247.282380	873.588158	-1.487692	269.162847	792.799665	-30.469798	248.698589	710.014668	-41.582623	301.859711	798.514173	-47.546305	260.744703	608.704616	-73.021532	216.037926	603.723912	-177.569750	209.502197	509.173093	-31.711060	206.830532	421.948403	-47.737200	165.447334	346.100641	-43.495200	228.908769	418.672765	-79.149211	127.941510	255.696499	-53.697109	140.458814	259.873748	-136.779799	69.849888	257.549161	-96.736537	282.451979	137.288823	-106.578066	199.915373	147.516999	-39.659879	235.139393	953.467577	-407.741242	320.861902	936.901053	-410.790215	337.541889	967.562166	-398.774409	386.694167	878.710503	-421.854911	476.236151	808.728608	-414.325884	482.943058	787.854488	-289.729684	144.723856	627.376310	-383.563590	162.990527	617.678249	-303.775355	88.484213	644.748197	-336.073222	155.384005	480.696608	-398.541258	366.253884	758.749507	-433.557020	309.189735	695.164712	-414.183903	224.022273	669.534529	-403.635423	328.480332	671.694743	-390.358235	226.255217	431.031390	-342.665708	-217.869443	833.546516	-213.625470	-104.038268	80.525744	-418.282865	-104.002537	80.329435	-18.283335	
753	3.7650	646.917774	1294.265869	-98.011468	651.223013	1325.068883	-418.551296	623.084987	1350.075662	-262.660571	620.785973	1210.960583	-271.741001	538.144725	1059.670154	16.065560	647.393821	877.140461	-55.479232	598.786708	1065.998639	-533.168272	646.826884	886.788856	-422.418454	120.932707	1135.346031	-151.974428	220.052778	1155.780914	-352.400975	344.934928	1132.537830	-83.860122	253.528667	1069.779605	-342.022812	327.846054	1039.808637	-101.825297	188.468670	1179.490544	-108.517169	153.286259	1197.512191	-213.054808	232.105668	1012.075993	-11.143387	128.717215	1034.624082	-368.660766	245.708248	874.177324	0.703420	266.231037	792.990912	-27.730587	244.323025	710.561931	-38.365840	299.146948	797.882656	-44.630788	254.561845	608.690675	-69.461189	208.937041	603.693859	-175.204780	202.577317	509.466461	-28.550101	200.097726	422.168852	-44.540274	158.228863	346.475247	-40.832581	222.691885	418.716906	-75.536612	121.927794	255.801246	-52.407725	134.579710	260.750353	-134.850121	64.431281	259.655323	-95.503126	272.979752	132.767425	-106.186128	191.002288	145.435233	-39.249353	236.440564	954.348589	-407.432080	322.369185	939.400993	-410.909418	338.517281	970.173712	-398.802895	389.197355	882.169036	-422.779834	481.845697	815.634871	-416.275587	490.762718	794.498108	-290.904461	154.228200	628.987652	-383.359714	172.875428	619.235537	-303.623805	97.757720	645.688742	-335.836206	165.425872	482.334389	-398.543186	373.569566	764.230362	-434.228605	317.736409	699.595735	-415.103311	233.018931	672.553138	-403.936622	337.529819	676.287213	-391.713460	236.498372	433.117938	-343.293610	-217.905760	833.529465	-213.612598	-104.040879	80.505184	-418.272521	-103.996395	80.329140	-18.265058	
